<mxfile host="Electron" modified="2023-12-04T15:21:41.677Z" agent="Mozilla/5.0 (Windows NT 10.0; Win64; x64) AppleWebKit/537.36 (KHTML, like Gecko) draw.io/22.1.2 Chrome/114.0.5735.289 Electron/25.9.4 Safari/537.36" etag="DbHjyhNP_Uu7fiPR_idI" version="22.1.2" type="device">
  <diagram name="Página-1" id="QdMVtgqyilFqjrBT13qO">
    <mxGraphModel dx="1050" dy="629" grid="1" gridSize="10" guides="1" tooltips="1" connect="1" arrows="1" fold="1" page="1" pageScale="1" pageWidth="827" pageHeight="1169" math="0" shadow="0">
      <root>
        <mxCell id="0" />
        <mxCell id="1" parent="0" />
        <mxCell id="A3E7QDSKzzV11ftnXnWG-1" value="" style="rounded=0;whiteSpace=wrap;html=1;fillColor=#d5e8d4;strokeColor=#82b366;" parent="1" vertex="1">
          <mxGeometry x="120" y="40" width="470" height="340" as="geometry" />
        </mxCell>
        <mxCell id="praxyIq5cIQ2sQXhG71v-5" value="" style="rounded=0;whiteSpace=wrap;html=1;fillColor=#619c26;strokeColor=#66FFB3;" parent="1" vertex="1">
          <mxGeometry x="290" y="70" width="220" height="230" as="geometry" />
        </mxCell>
        <mxCell id="praxyIq5cIQ2sQXhG71v-6" value="" style="edgeStyle=orthogonalEdgeStyle;rounded=0;orthogonalLoop=1;jettySize=auto;html=1;endArrow=classicThin;endFill=1;" parent="1" source="praxyIq5cIQ2sQXhG71v-1" target="praxyIq5cIQ2sQXhG71v-2" edge="1">
          <mxGeometry relative="1" as="geometry">
            <Array as="points">
              <mxPoint x="370" y="140" />
              <mxPoint x="370" y="140" />
            </Array>
          </mxGeometry>
        </mxCell>
        <mxCell id="praxyIq5cIQ2sQXhG71v-1" value="Negocio / Feature&lt;br&gt;(Cucumber)" style="rounded=1;whiteSpace=wrap;html=1;" parent="1" vertex="1">
          <mxGeometry x="310" y="100" width="120" height="30" as="geometry" />
        </mxCell>
        <mxCell id="praxyIq5cIQ2sQXhG71v-7" value="" style="rounded=0;orthogonalLoop=1;jettySize=auto;html=1;entryX=0.332;entryY=0.031;entryDx=0;entryDy=0;entryPerimeter=0;startArrow=classicThin;startFill=1;endArrow=classicThin;endFill=1;" parent="1" source="praxyIq5cIQ2sQXhG71v-2" target="praxyIq5cIQ2sQXhG71v-4" edge="1">
          <mxGeometry relative="1" as="geometry">
            <Array as="points">
              <mxPoint x="370" y="190" />
              <mxPoint x="370" y="200" />
            </Array>
          </mxGeometry>
        </mxCell>
        <mxCell id="praxyIq5cIQ2sQXhG71v-8" value="" style="edgeStyle=orthogonalEdgeStyle;rounded=0;orthogonalLoop=1;jettySize=auto;html=1;entryX=0.174;entryY=-0.029;entryDx=0;entryDy=0;startArrow=classicThin;startFill=1;entryPerimeter=0;endArrow=classicThin;endFill=1;" parent="1" source="praxyIq5cIQ2sQXhG71v-2" target="praxyIq5cIQ2sQXhG71v-3" edge="1">
          <mxGeometry relative="1" as="geometry">
            <Array as="points">
              <mxPoint x="450" y="165" />
              <mxPoint x="450" y="165" />
            </Array>
          </mxGeometry>
        </mxCell>
        <mxCell id="praxyIq5cIQ2sQXhG71v-2" value="Definition" style="rounded=1;whiteSpace=wrap;html=1;" parent="1" vertex="1">
          <mxGeometry x="310" y="150" width="120" height="30" as="geometry" />
        </mxCell>
        <mxCell id="praxyIq5cIQ2sQXhG71v-9" value="" style="edgeStyle=orthogonalEdgeStyle;rounded=0;orthogonalLoop=1;jettySize=auto;html=1;exitX=0.835;exitY=-0.019;exitDx=0;exitDy=0;exitPerimeter=0;entryX=1;entryY=0.477;entryDx=0;entryDy=0;entryPerimeter=0;endArrow=classicThin;endFill=1;" parent="1" source="praxyIq5cIQ2sQXhG71v-3" target="praxyIq5cIQ2sQXhG71v-1" edge="1">
          <mxGeometry relative="1" as="geometry">
            <Array as="points">
              <mxPoint x="460" y="114" />
            </Array>
          </mxGeometry>
        </mxCell>
        <mxCell id="praxyIq5cIQ2sQXhG71v-3" value="Data Driven" style="rounded=1;whiteSpace=wrap;html=1;rotation=-90;" parent="1" vertex="1">
          <mxGeometry x="429.75" y="124.25" width="78.5" height="30" as="geometry" />
        </mxCell>
        <mxCell id="praxyIq5cIQ2sQXhG71v-4" value="Page / Driver (AutoIt)" style="rounded=1;whiteSpace=wrap;html=1;" parent="1" vertex="1">
          <mxGeometry x="310" y="203" width="180" height="27" as="geometry" />
        </mxCell>
        <mxCell id="praxyIq5cIQ2sQXhG71v-10" value="Gestor de Código Fuente" style="text;html=1;strokeColor=none;fillColor=none;align=center;verticalAlign=middle;whiteSpace=wrap;rounded=0;" parent="1" vertex="1">
          <mxGeometry x="320" y="74" width="160" height="20" as="geometry" />
        </mxCell>
        <mxCell id="praxyIq5cIQ2sQXhG71v-18" value="" style="edgeStyle=orthogonalEdgeStyle;rounded=0;orthogonalLoop=1;jettySize=auto;html=1;entryX=0.946;entryY=0.027;entryDx=0;entryDy=0;entryPerimeter=0;" parent="1" source="praxyIq5cIQ2sQXhG71v-12" target="praxyIq5cIQ2sQXhG71v-17" edge="1">
          <mxGeometry relative="1" as="geometry" />
        </mxCell>
        <mxCell id="praxyIq5cIQ2sQXhG71v-12" value="Ejecución - Azure" style="rounded=1;whiteSpace=wrap;html=1;rotation=-90;" parent="1" vertex="1">
          <mxGeometry x="431.25" y="171.25" width="227.5" height="30" as="geometry" />
        </mxCell>
        <mxCell id="praxyIq5cIQ2sQXhG71v-15" value="" style="edgeStyle=orthogonalEdgeStyle;rounded=0;orthogonalLoop=1;jettySize=auto;html=1;endArrow=classicThin;endFill=1;" parent="1" source="praxyIq5cIQ2sQXhG71v-14" target="praxyIq5cIQ2sQXhG71v-4" edge="1">
          <mxGeometry relative="1" as="geometry" />
        </mxCell>
        <mxCell id="praxyIq5cIQ2sQXhG71v-14" value="Utilitarios" style="rounded=1;whiteSpace=wrap;html=1;" parent="1" vertex="1">
          <mxGeometry x="310" y="250" width="180" height="30" as="geometry" />
        </mxCell>
        <mxCell id="praxyIq5cIQ2sQXhG71v-16" value="Utils&lt;br&gt;&lt;br&gt;- Constantes&lt;br&gt;- DataDriven filter&lt;br&gt;- Escritura Feature&lt;br&gt;- Excel Reader&lt;br&gt;- Excepciones&lt;br&gt;- Generador datos&lt;br&gt;- Gestión de ambientes&lt;br&gt;- Generación logs" style="rounded=0;whiteSpace=wrap;html=1;fillColor=#E2F0EE;strokeColor=#333333;dashed=1;dashPattern=12 12;" parent="1" vertex="1">
          <mxGeometry x="150" y="70" width="120" height="230" as="geometry" />
        </mxCell>
        <mxCell id="praxyIq5cIQ2sQXhG71v-17" value="Resultados (Serenity) - Work Item" style="rounded=1;whiteSpace=wrap;html=1;" parent="1" vertex="1">
          <mxGeometry x="290" y="320" width="270" height="30" as="geometry" />
        </mxCell>
      </root>
    </mxGraphModel>
  </diagram>
</mxfile>
